<?xml version="1.0" encoding="UTF-8"?>
<svg id="_Слой_1" data-name="Слой 1" xmlns="http://www.w3.org/2000/svg" viewBox="0 0 395.66 375">
  <g>
    <path d="M220.9,142.71c-4.25,1.73-8.43,3.66-12.77,5.11-2.43.81-5.11,1.07-7.69,1.14-4.26.11-6.5-1.53-7.63-5.68-.61-2.24-.83-4.69-.68-7.01.23-3.58-.42-6.02-5.63-5.32,3.57-2.43,6.46-2.64,9.44-1.29,2.7,1.21,3.7,3.49,3.73,6.36.03,2.12.21,4.24.35,6.36.33,4.82,1.67,6.18,6.05,4.5,6.79-2.61,13.41-5.75,19.88-9.11,4.06-2.11,7.69-5.05,11.56-7.56,1.24-.8,2.56-1.54,3.94-2.04.49-.18,1.55.29,1.82.76.22.39-.18,1.42-.62,1.82-.72.66-1.63,1.23-2.56,1.49-10.96,3.08-18.14,10.5-23.2,20.3-5.31,10.29-10.23,20.8-15.8,30.95-7.33,13.35-16.27,25.48-29.15,34.1-7.19,4.81-15.09,7.62-23.88,7.06-5.03-.32-9.54-2.05-12.56-6.33-2.78-3.94-.91-8.71,3.43-9.21,4.1-.47,6.38,2.31,5.14,6.27-1.91,6.1-.63,7.83,5.77,8.05,12.57.43,21.22-6.35,27.91-15.91,4.62-6.61,8.63-13.71,12.35-20.88,8.33-16.04,18.27-30.89,30.8-43.94Z" style="fill: #964215; stroke-width: 0px;"/>
    <path d="M137.6,178c-.57-14.06,7.5-28.32,18.37-32.17,3.39-1.2,7.64-1.14,11.2-.33,4.14.94,6.42,6.4,5.75,11.42-1.93,14.48-11.01,22.92-23.87,28-7.29,2.88-14.75,3.35-22.17.4-8.76-3.48-13.41-12.46-11.51-21.83.33-1.64.32-3.35.47-5.05,7.62-15.63,21.39-23.74,38.55-26.98-.22-.72-.21-1.19-.42-1.33-8.29-5.57-7.33-14.21-3.29-20.89,7.71-12.75,19.35-19.37,34.36-19.49,2.15-.02,4.31.79,6.74,1.28-3.62,0-6.88-.23-10.1.04-11.43.95-27.35,17.84-28.52,32.19-.42,5.22,1.97,7.71,7.13,7.56,1.74-.05,3.5-.02,5.21.25.8.13,1.5.92,2.25,1.4-.74.48-1.43,1.21-2.23,1.38-1.07.23-2.32.28-3.34-.05-10.69-3.44-18.88,1.52-26.43,8.08-4.93,4.29-8.42,9.71-10.95,16.97,4.58-1.34,8.35-2.44,12.11-3.54.08.27.16.53.25.8-2.73.88-5.42,2.24-8.21,2.51-3.68.35-5.41,1.84-5.41,5.52,0,2.61-.54,5.28-.14,7.81,1.86,11.61,10.18,16.61,22.92,12.88,13.19-3.86,22.24-12.42,25.21-26.39.36-1.67.43-3.52.13-5.2-1.14-6.37-6.69-9.25-12.75-6.58-7.99,3.51-12.84,10.08-16.3,17.75-1.87,4.13-3.17,8.52-5.03,13.6Z" style="fill: #964215; stroke-width: 0px;"/>
    <path d="M207.84,177.88c14.5-1.4,23.03-11.38,31.28-21.59,7.43-9.19,15.43-17.66,26.1-23.09,6.51-3.31,13.26-5.73,20.77-3.66,4.45,1.23,7.81,5.13,6.87,8.83-.42,1.66-2.01,3.55-3.55,4.21-1.18.51-3.81-.29-4.52-1.35-.77-1.16-.53-3.5.09-4.99,1.56-3.76.63-5.75-3.48-6.04-8.42-.6-14.43,4.08-19.77,9.65-4.39,4.58-8.25,9.67-12.41,14.48-9.28,10.76-20.22,19.14-34.38,23.41.6.68.83,1.19,1.17,1.28,8.51,2.39,12.52,12.71,11.63,21.28-.56,5.45-1.42,10.88-1.93,16.34-.59,6.45,4.15,7.88,8.33,4.87,5.29-3.8,9.67-8.87,14.41-13.43,1.21-1.16,2.26-2.49,3.67-3.46-5.24,6.83-10.14,14.03-18.06,18.17-5.51,2.88-10.63,1.21-13.48-4.32-3.48-6.75-2.39-13.78-1.33-20.86.53-3.54.91-7.2.66-10.75-.39-5.42-3.03-7.57-8.53-7.88-1.1-.06-2.2-.11-3.3-.17-.08-.31-.17-.61-.25-.92Z" style="fill: #964215; stroke-width: 0px;"/>
    <path d="M183.74,98.97c-3.68,3.48-6.74,6.02-9.36,8.95-3.46,3.87-4.22,8.82-2.27,11.69,1.84,2.7,6.87,3.26,11.75,1.31,7.55-3.01,15.11-14.09,10.88-25.91,2.88,3.23,3.22,7.33,1.06,13.78-2.47,7.38-7.31,12.22-15.02,14.07-3.91.94-7.22-.02-9.78-2.98-2.52-2.9-2.16-6.26-.6-9.48,2.61-5.38,7-8.76,13.34-11.44Z" style="fill: #964215; stroke-width: 0px;"/>
  </g>
  <text transform="translate(243.33 191.92)" style="fill: #974315; font-family: MonotypeCorsiva, &apos;Monotype Corsiva&apos;; font-size: 48px;"><tspan x="0" y="0">50 ЖАС</tspan></text>
</svg>