<?xml version="1.0" encoding="UTF-8"?>
<svg id="_Слой_1" data-name="Слой 1" xmlns="http://www.w3.org/2000/svg" viewBox="0 0 446.01 61.57">
  <path d="M330.55,0c.24,0,.48,0,.72,0,2.38.38,4.76.79,7.14,1.14,3.53.52,6.68,2.02,9.77,3.67,1.61.86,3.21,1.73,4.83,2.58,3.05,1.6,6.13,3.16,9.16,4.81,3.1,1.69,6.11,3.54,9.23,5.19,3.44,1.81,6.94,3.5,10.45,5.18,2.84,1.37,5.45,3.28,8.8,3.44,3.47.17,6.67-.35,8.88-3.28,2.61-3.45,3.82-7.41,3.41-11.73-.28-2.92-2.09-4.49-5.17-5.03-1.44-.25-2.95-.28-4.42-.23-3.73.13-5.94,1.42-6.56,5.23-.34,2.14-.55,4.38.67,6.4.8,1.33,2.43,2.03,3.56,1.44,1.19-.62,2.37-1.52,2.29-2.96-.08-1.38-.7-2.7-2.36-3.54,1.09-1.06,2.07-2.11,3.17-3.03.32-.27,1.06-.33,1.45-.15.96.46,1.8,1.17,2.74,1.67,1.19.63,1.23,1.57.98,2.69-2.07-.49-2.27-.32-2.31,1.8,0,.16.01.32-.01.48-.36,2.18-.73,4.37-3.13,5.36-3.08,1.27-7.55.54-10.07-3.31-1.86-2.84-2.1-5.43-.24-8.27.58-.89.92-1.94,1.37-2.93-.22-.08-.3-.12-.37-.13-.08,0-.17,0-.24.03-2.36,1.11-4.43,2.53-5.16,5.22-.2.74-.5.95-1.24.85-.86-.11-.91-.64-.82-1.27.09-.62.25-1.23.45-2.22-.6.33-1.08.45-1.35.76-.97,1.13-2.15,1.56-3.6,1.35-.88-.13-1.13-.69-.61-1.43.31-.43.69-.81,1.05-1.22-1.1-.33-2.07-.73-3.07-.89-1.79-.29-2.58-1.6-3.28-3-.34-.67-.14-1.13.75-1.14,3.07-.05,6.15.02,9.2-.26,2.8-.26,5.59-.79,8.33-1.42,3.13-.72,6.06-2.34,9.5-1.2,2.15.71,4.1,1.55,5.71,3.18.5.51,1.22.8,1.69,1.09.72-1.48,1.26-2.7,1.91-3.85.31-.55.79-.6,1.19.07.56.95,1.35,1.8,1.76,2.81.49,1.19.87.93,1.56.22,3.3-3.35,7.18-4.91,11.85-3.44,5.93,1.86,11.97,2.87,18.19,2.84.59,0,1.19-.29,1.78-.47.89-.27,1.7-1.12,2.93-.27-.52.71-.95,1.45-1.53,2.04-.93.96-1.84,2.05-2.97,2.68-1.38.77-2.85,1.31-3.71,2.77-.31.54-.78.6-1.26.06-.4-.45-.9-.81-1.45-1.28-.35.96-.62,1.7-.95,2.59-1-1.52-1.68-2.95-2.72-4.03-1.17-1.21-2.82-1.43-4.6-1.13.15.43.24.77.39,1.08,1.01,2.03,1.96,4.05,2.15,6.38.17,2.1-.72,4.86-2.54,6.04-2.15,1.39-4.48,1.92-6.95,1.6-.89-.11-2.04-.58-2.47-1.26-.72-1.13-.98-2.56-1.37-3.88-.2-.69-.4-1.12-1.28-1.27-1.99-.34-2.45-1.61-1.49-3.39.9-1.66,2.84-1.8,4.18-2.82.27-.21,1.45.75,2.2,1.19.38.22.75.45,1.1.72,1.02.77,1.47,2.24,1.11,3.55-.65-.14-1.3-.33-1.96-.42-.99-.13-1.49.5-1.36,1.35.21,1.36.83,2.58,2.17,3.23,1.27.61,3.13.3,4.2-.8,1.28-1.32,2.26-2.86,1.68-4.78-.36-1.19-1.07-2.28-1.64-3.41-1.29-2.54-3.2-4.11-6.22-3.94-1.35.08-2.71.11-4.05.27-2.13.25-4.56,2.17-4.8,3.94-.6,4.38-.28,8.64,2.21,12.48,1.23,1.9,2.8,3.49,5.26,3.32,1.84-.13,3.68-.53,5.45-1.05,1.27-.37,2.43-1.13,3.63-1.73,2.28-1.12,4.57-2.22,6.82-3.39,3.17-1.64,6.33-3.17,10.09-2.36,3.45.74,5.44,2.21,5.64,5.52.18,3.03-.53,5.87-3.8,7.24-.06.02-.08.13-.13.22.55.36,1.21.63,1.62,1.11,1.81,2.11,3.03,4.28,1.68,7.28-1.04,2.3-3.78,4.79-6.7,4.69-1.08-.03-2.17.08-3.24-.02-.89-.08-1.83-.23-2.61-.61-4.65-2.23-9.22-4.62-13.89-6.8-4.18-1.95-7.39-.52-9.57,3.01-1.66,2.68-2.51,5.64-2.53,8.79,0,1.37.05,2.76.29,4.11.27,1.56,1.23,2.72,2.88,2.9,2.41.27,4.83.51,7.24.47,1.03-.02,2.18-.58,3.04-1.21,2.44-1.77,3.55-5.25,2.1-8.87-.95-2.38-3.97-3.26-5.81-1.43-.57.57-.66,1.62-.97,2.44.75.25,1.5.51,2.26.72.2.06.44-.04.71-.07.13,1.55-.88,2.25-1.83,3.02-.83.67-1.69,1.35-2.35,2.18-.51.63-.89.58-1.38.17-.64-.54-1.21-1.15-1.85-1.69-.92-.79-.89-1.74-.69-2.77,1.41-.05,1.9-.48,2.11-1.81.11-.67.13-1.35.24-2.02.34-2.04,1.4-3.51,3.44-4.14,1.08-.33,2.16-.42,3.26.02,1.64.66,3.77.82,4.86,1.97,2.47,2.61,2.99,6.16,1,9.77-.52.94-1.01,1.9-1.51,2.85l.25.28c.78-.33,1.6-.6,2.35-1,1.63-.86,3.2-1.79,3.76-3.75.09-.32.46-.56.7-.84.25.29.6.55.72.88.2.57.25,1.2.4,1.99.51-.29.88-.42,1.16-.67,1.24-1.1,2.37-.84,3.11.68.13.27.63.55.92.52,3.5-.33,5.04,2.26,5.77,5.29-.41,0-.83.09-1.19-.01-3.15-.86-6.31-.32-9.42.08-4.12.53-8.18,1.6-12.3,2.11-2.42.3-4.94.12-7.39-.14-2.17-.23-3.7-1.8-5.25-3.4-.16.34-.35.57-.37.81-.15,1.56-1.03,2.73-2.09,3.76-.24.23-.97.37-1.12.21-1.05-1.09-2.1-2.21-1.88-3.93.04-.28-.04-.58-.08-1-.5.31-.89.51-1.23.77-4.6,3.5-9.7,3.67-15.1,2.41-3.67-.86-7.37-1.66-11.11-2.14-2.89-.37-5.85-.24-8.56,1.15-.99-2.74.4-5.37,3.18-5.84,1.31-.22,2.68-.04,4-.04.37-2.33,1.32-2.69,3.11-1.35.32.24.72.35,1.24.6-.08-.56-.12-.87-.18-1.17-.06-.31-.16-.61-.21-.92-.14-.86.38-1.37,1.24-1.25.77.11.88.62.92,1.28.22,3.09,2.54,5.09,5.55,4.77-.02-.23.03-.48-.06-.67-.46-1-1-1.97-1.44-2.98-.73-1.66-1.16-3.38-.66-5.21,1.18-4.37,5.33-7.01,9.75-6.02,1.13.25,2.64.76,3.11,1.62.85,1.55,1.12,3.43,1.48,5.21.22,1.11.49,1.4,1.56,1.08.25-.07.5-.13.93-.24-.04,1.2-.57,2.02-1.36,2.61-.99.74-2.06,1.39-3.14,1.98-.23.12-.75-.08-1.02-.29-.74-.58-1.48-1.19-2.11-1.89-.48-.54-.8-1.24-1.2-1.89.65-.16,1.11-.18,1.47-.38,1.17-.66,1.44-1.45,1.11-2.93-.25-1.13-.95-1.61-2.11-1.73-3.29-.32-5.51,1.07-5.89,3.78-.25,1.73.53,3.2,1.31,4.61.48.88,1.16,1.72,1.94,2.34,3.17,2.53,6.8,2.16,10.38,1.27,1.77-.44,3.35-1.72,3.79-3.47.46-1.85.51-3.9.24-5.8-.38-2.69-1.78-5.06-3.33-7.28-2.78-3.97-7.38-4.88-11.49-2.94-2.19,1.03-4.39,2.04-6.53,3.16-2.74,1.42-5.49,2.86-8.14,4.44-3,1.79-5.93,3.7-9.2,5.01-2.27.91-4.52,1.9-6.68,3.03-2.39,1.24-4.67,2.69-7,4.04-1.86,1.08-3.64,2.31-5.59,3.19-6.31,2.85-12.85,4.38-19.83,2.87-5.5-1.19-9.67-4.13-10.82-10.08-.16-.8-.31-1.59-.46-2.39-.73,2.69-1.45,5.33-3.18,7.53-2.48,3.16-5.96,4.52-9.77,5.2-3.38.6-6.72.23-10.09-.38-4.52-.81-8.61-2.63-12.52-4.91-4.11-2.4-8.17-4.88-12.27-7.3-.71-.42-1.46-.75-2.22-1.07-2.58-1.08-5.24-1.94-7.66-3.43-2.69-1.67-5.5-3.15-8.31-4.59-2.28-1.17-4.68-2.11-6.97-3.27-1.83-.93-3.51-2.04-5.75-2-1.85.04-3.61.08-5.19,1.15-2.85,1.93-4.56,4.76-5.19,7.97-.46,2.33-.05,4.83.04,7.25.07,2.04,1.5,3.06,3.16,3.8,2.01.9,4.17,1.11,6.31.81,1.58-.22,3.27-.52,4.61-1.3,2.3-1.33,2.93-3.73,2.98-6.26.07-3.06-2.61-5.44-5.64-4.99-.43.06-1.07.33-1.18.66-.35.97-.75,2.05-.62,3.01.15,1.1,1.32,1.01,2.24.98.15,0,.29.06.7.15-1.82,1.81-3.5,3.49-5.26,5.25-1.73-1.34-3.74-2.48-4.06-5.19h2.5c.13-1.27.21-2.42.36-3.55.31-2.42,1.71-4.11,3.95-4.44,2.05-.3,4.18-.39,6.08.65,1.7.93,3.33,2.14,3.53,4.22.16,1.75.01,3.57-.28,5.32-.25,1.52-.88,2.97-1.42,4.71,3.15-.76,5.42-2.22,6.6-5.18.13.02.26.04.39.06.34.73.69,1.46,1.11,2.36.64-.56,1.19-1.2,1.89-1.61.45-.26,1.15-.34,1.63-.18.25.08.32.86.35,1.34.03.35-.12.72-.21,1.16,3.87-.14,5.99,2.02,7.44,5.09.15.32.01.78,0,1.17-.35-.14-.72-.26-1.06-.42-.4-.19-.77-.56-1.19-.63-3.16-.53-6.35-.34-9.49.09-4.63.63-9.22,1.58-13.86,2.22-3.14.43-6.11-.17-8.53-2.45-.5-.47-1.03-.9-1.61-1.4-.6,1.81-1.02,3.52-2.58,4.62-.57.4-.85.41-1.18-.24-.73-1.42-1.53-2.82-2.36-4.33-.31.27-.6.59-.95.83-.98.67-1.92,1.46-2.99,1.94-3.57,1.6-7.31,1.42-11.03.71-3.11-.59-6.16-1.58-9.28-2.06-4.14-.63-8.36-1.21-12.23,1.47-.51-1.13.18-2.08.58-3,1.15-2.72,3.46-3.66,6.56-3.56-.45-.42-.65-.56-.77-.75-.25-.37-.45-.78-.67-1.17.46-.25.89-.65,1.37-.73,1.17-.2,2.29-.1,3.07,1.02.24.34.64.56,1.04.89.47-1.21.37-2.65,1.58-3.06.66,1.59.99,3.28,1.96,4.44,1.01,1.22,2.64,1.95,4.48,1.31-.82-1.58-1.71-3.04-2.36-4.6-1-2.39-.89-4.66,1.27-6.5.45-.38.9-.79,1.28-1.24,2.18-2.6,4.98-3.05,8.12-2.37,1.79.39,3.03,1.38,3.45,3.2.2.85.36,1.71.41,2.58.09,1.66.26,1.86,1.88,1.83.94-.02,1.32.49.78,1.21-.58.76-1.34,1.4-2.07,2.04-.53.46-1.32.7-1.69,1.25-.64.93-1.1.64-1.7.07-1.11-1.05-2.22-2.09-3.33-3.14-.54-.51-.85-1.05-.12-1.66.15.04.29.04.37.1,1.04.86,1.81.12,2.49-.52.79-.73.02-1.29-.41-1.81-.42-.52-.96-.94-1.39-1.45-.64-.78-1.37-.69-2.13-.28-2.18,1.18-3.55,2.88-2.82,5.84,1.22,4.94,3.39,6.68,8.2,6.32.24-.02.48,0,.72-.03,4.05-.35,6.75-2.28,7.38-6.17.36-2.2.44-4.48-.63-6.55-.73-1.4-1.63-2.72-2.56-4-.78-1.08-1.62-2.14-2.58-3.06-2.52-2.42-5.24-2.19-7.97-.83-3.15,1.57-6.33,3.08-9.48,4.64-1.99.98-4.05,1.86-5.9,3.06-4.27,2.77-8.7,5.22-13.26,7.46-4.7,2.31-9.44,4.55-14.02,7.08-4.05,2.23-8.26,3.81-12.84,4.43-5.14.69-10.02.11-14.36-2.93-2.37-1.66-4.25-3.71-4.62-6.77-.12-.99-.33-1.97-.5-3.01-.69,1.84-1.15,3.72-2.06,5.34-2.16,3.85-5.55,6.11-9.9,7.04-5.87,1.26-11.5.44-16.94-1.82-3.06-1.28-5.98-2.9-8.95-4.39-3.18-1.6-6.36-3.2-9.53-4.83-2.96-1.52-5.95-2.99-8.84-4.63-3.1-1.75-6.04-3.78-9.17-5.49-2.59-1.42-5.34-2.55-8.02-3.79-2-.93-3.92-1.81-6.31-1.72-3.41.13-5.77,1.84-7.45,4.4-2.28,3.47-3.15,7.4-2.77,11.59.1,1.1,1.67,3.43,2.92,3.91,2.34.91,4.77,1.2,7.26,1.05,2.7-.16,4.7-1.36,5.75-3.91.76-1.84.58-3.73.22-5.62-.46-2.46-.47-2.45-2.81-2.92-1.45-.29-2.4.33-2.73,1.79-.08.35-.12.71-.18,1.06-.26,1.62-.11,1.78,1.52,1.66.11,0,.22.06.57.16-.51.78-.82,1.84-1.48,2.13-1.49.66-2.69,1.41-2.96,3.38-1.57-1.92-3.77-2.95-4.46-5.45h2.36c.12-1.33.21-2.55.34-3.76.28-2.59,3.01-4.97,5.55-4.43,2.91.62,5.84,1.25,7.62,4.24,1.3,2.19,1.75,4.19.62,6.48-.69,1.4-1.35,2.81-2.12,4.41,3.43-.79,5.59-2.54,6.13-5.97,1.89.4,1.5,2.11,2.21,3.51.66-.64,1.31-1.08,1.7-1.69.51-.78,1.2-.76,1.74-.41.42.28.6.96.78,1.5.08.26-.1.6-.18.94,1.52.08,3.16-.29,4.2,1.2.86,1.24,1.61,2.54,2.56,4.05-1.27-.1-2.09-.24-2.91-.21-2.82.12-5.66.17-8.46.51-2.87.35-5.75.85-8.55,1.57-2.7.69-5.38.73-8.06.33-2.27-.33-4.47-1.02-6.25-2.61-.39-.35-.79-.68-.97-.84-.76,1.34-1.37,2.61-2.15,3.76-.81,1.18-1.44,1.21-2.3.03-.81-1.12-1.38-2.41-2.12-3.75-.77.57-1.62,1.32-2.58,1.91-3.13,1.93-6.62,2.09-10.07,1.54-4.29-.68-8.51-1.92-12.81-2.5-3.24-.44-6.65-.84-9.71,1.08-.18.11-.56.11-.73,0-.14-.1-.2-.47-.15-.68.19-.77.42-1.53.68-2.27.79-2.27,1.68-3.04,4.46-3.09.73-.01,1.46,0,2.19,0,.03-.11.06-.21.1-.32-.55-.37-1.1-.75-1.73-1.18.57-.46.79-.69,1.06-.84,1.41-.76,2.56-.3,3.04,1.19.35,1.1,1.51,1.24,2.62.34-.16-.75-.38-1.47-.43-2.21-.02-.26.36-.73.61-.77.29-.05.79.2.93.46.49.94.89,1.93,1.29,2.92.57,1.38,2.67,2.5,4.19,2.14-.39-.84-.79-1.65-1.14-2.49-1.34-3.19-2.25-6.24.79-9.19,2.62-2.55,5.47-3.7,9.06-2.73,1.08.29,1.94.78,2.22,2.04.28,1.27.73,2.51,1.12,3.76.2.66.25,1.52.7,1.91.45.39,1.31.3,2.11.45-.06,1.04-.66,1.87-1.63,2.49-.97.62-1.95,1.22-2.98,1.86-.75-.63-1.58-1.61-2.64-2.12-1.25-.61-1.85-1.51-2.29-2.96.78-.09,1.45-.22,2.12-.23,1.62-.02,2.24-.91,1.26-2.16-.66-.84-1.75-1.79-2.71-1.86-1.37-.1-2.77.63-3.61,1.95-1.52,2.41-.32,4.72.5,6.92.71,1.92,2.25,3.25,4.42,3.3,2.2.06,4.51.23,6.6-.31,3.98-1.03,4.72-4.91,4.08-8.62-.16-.93-.43-1.87-.46-2.81-.09-3.32-2-5.54-4.44-7.39-2.08-1.58-4.52-1.27-6.64-.36-4,1.73-7.86,3.8-11.74,5.78-2.53,1.29-5.07,2.4-8.03,1.92-2.68-.44-5.31-.93-6.62-3.73-.3-.64-.5-1.32-.74-1.98,0-.4,0-.8,0-1.2.07-.14.18-.27.19-.41.26-2.39.84-4.6,3.19-5.81-.55-.49-1.1-.85-1.48-1.33C-.03,26.37-.35,23.7.87,20.88c1.19-2.76,3.63-3.66,6.37-3.83,2.25-.14,4.21.69,6.11,1.96,4.36,2.91,9.21,4.86,14.14,6.55,2.82.97,5.41.43,7.42-2,1.85-2.24,2.67-4.93,3.45-7.64.69-2.39.91-4.83.06-7.23-.19-.53-.63-1.08-1.11-1.37-2.83-1.67-5.92-1.91-9.1-1.46-1.55.22-2.88.89-3.92,2.06-2.29,2.57-2.32,5.48-1.36,8.6.49,1.58,1.66,2.13,3.06,2.46,1.37.33,2-.72,2.73-1.53.24-.26.4-.59.58-.9.74-1.29-.09-2.7-1.6-2.68-.34,0-.68.08-1.32.16,1.22-2.32,3.14-3.64,4.69-5.18,1.27,1.07,2.44,2.02,3.55,3.04.25.23.39.7.39,1.06,0,.2-.39.58-.6.58-1.51,0-1.78.83-1.63,2.1.06.5-.12,1.02-.17,1.54-.23,2.54-1.65,4.12-4.3,4.44-4.44.53-7.64-1.5-9.64-5.3-.6-1.14-.89-2.31-.45-3.54.46-1.28.98-2.55,1.5-3.81.3-.75.65-1.47,1.06-2.41-3.71.39-5.38,2.51-5.92,5.7-1.84-.47-1.27-1.7-1.08-2.89-.7.38-1.3.79-1.86,1.26-.73.61-2.45.87-3.1.41-1.04-.73-.18-1.48,0-2.22.02-.07,0-.15,0-.4-.59-.18-1.22-.36-1.85-.56-1.07-.35-2.31-.48-3.16-1.13-.91-.69-1.46-1.86-2.13-2.84-.14-.21-.08-.56-.12-.85.33,0,.68-.09.98,0,.49.13.94.54,1.42.55,2.56.04,5.13.19,7.67-.05,5.15-.48,10.18-1.64,15.18-2.97,2.89-.77,5.59-.1,8.02,1.55,1.11.75,2.08,1.7,2.96,2.44.59-1.1,1-2.29,1.76-3.19.92-1.1,1.4-.96,2.17.24.71,1.11,1.43,2.22,2.26,3.51,1.57-2.16,3.33-3.58,5.72-4.22,1.59-.42,3.13-.89,4.79-.53,4.15.91,8.26,2.03,12.46,2.64,4,.57,8.07,1.25,12.12.15.17-.05.37.02.7.05-.15.5-.17.99-.42,1.28-1,1.16-1.95,2.43-3.16,3.33-1.55,1.15-3.31,2.01-5.03,2.9-.33.17-.93.01-1.31-.18-.43-.21-.76-.64-1.13-.97-.63.98-1.21,1.9-1.8,2.81l-.46-.16c-.09-.64-.07-1.32-.29-1.92-.27-.74-.56-1.71-1.14-2.04-1.31-.73-2.81-1.13-4.53-1.77.64,1.54,1.23,2.74,1.63,4,.95,3.06.85,6.45-1.84,8.35-.45.32-.83.75-1.3,1.03-1.79,1.03-3.4,2.24-5.83,1.59-2.75-.74-4.12-2.43-4.52-5-.22-1.39-.63-2.46-1.83-3.26-.55-.37-.83-1.01-.12-1.57,1.06-.84,2.11-1.7,3.24-2.43.34-.22,1.02-.23,1.39-.03.8.42,1.54.99,2.24,1.58,1.03.86,1.56,2.01,1.76,3.36-.84,0-1.62-.1-2.34.04-.48.09-1.03.43-1.29.83-.17.26.08.84.22,1.25.09.25.33.44.49.67,1.69,2.31,1.85,2.36,4.48,1.31,1.81-.73,2.95-2.57,2.58-4.48-.3-1.55-.73-3.09-1.28-4.57-.62-1.68-1.99-2.77-3.68-3.12-2.63-.54-5.33-.53-7.95.19-1.84.51-3.45,1.58-3.78,3.54-.29,1.68-.44,3.56.01,5.16.77,2.76,2.02,5.39,3.16,8.04.29.68.76,1.46,1.37,1.81,2.49,1.42,5.25,1.83,7.94.88,3.28-1.16,6.46-2.62,9.65-4.04,1.62-.72,3.13-1.66,4.73-2.43,2.36-1.12,4.79-2.09,7.11-3.28,3.95-2.02,7.83-4.16,11.74-6.27,2.48-1.34,5-2.62,7.41-4.08,4.98-3.03,10.38-4.86,16.16-5.22,3.31-.2,6.68.16,10,.49,2.33.23,4.55,1.05,5.99,3.06,1.02,1.42,1.93,2.95,2.67,4.53.7,1.48,1.12,3.09,1.65,4.63.09-.6.23-1.26.3-1.92.3-3.24,1.63-5.97,4.24-7.95,2-1.52,4.37-2.13,6.86-2.54,6.89-1.14,13.46-.07,19.67,2.88,5.01,2.37,9.79,5.22,14.68,7.83,4.73,2.52,9.46,5.04,14.23,7.48,3.25,1.66,6.57,3.17,9.86,4.75,1.58.75,3.08,1.84,4.75,2.19,4.28.89,8.2.24,11.11-3.52,2.36-3.06,3.52-6.45,3.21-10.3-.09-1.11-.39-2.14-1.24-3-2.9-2.92-6.46-3.62-10.33-3.06-2.01.29-3.74,1.24-4.9,3.08-2,3.17-.98,8,2.12,9.67,1.2.65,1.94.53,2.81-.47.52-.6.95-1.3,1.55-1.8,1.07-.89.34-1.5-.21-2.18-.58-.72-1.15-1.04-1.99-.29-.64.58-1.15.37-1.37-.5-.26-1,.25-1.94,1.43-2.55,1.1-.56,2.17-1.17,3.29-1.68.39-.18,1.08-.34,1.31-.14,1.34,1.12,2.59,2.34,3.84,3.56.15.15.17.53.1.77-.04.13-.37.26-.57.25-2.17-.1-2.17-.11-2.24,2.01,0,.12,0,.24-.01.36-.36,2.21-.84,4.34-3.29,5.25-4.49,1.67-8.82-.47-10.31-5.08-.41-1.28-.66-2.54-.25-3.86.45-1.44.88-2.88,1.32-4.32.13-.44.3-.86.47-1.36-.32-.05-.48-.09-.63-.1-.16,0-.33,0-.47.05-2.34.92-4.19,2.28-4.63,4.98-.05.31-.39.68-.69.8-.17.06-.62-.28-.76-.54-.38-.72-.66-1.49-1.01-2.33-.31.25-.56.51-.87.67-.74.39-1.47.88-2.26,1.06-1.13.26-1.94-.56-1.53-1.5.51-1.15-.09-1.49-.98-1.75-.42-.12-.85-.2-1.29-.28-2.52-.47-3.39-2.53-4.3-4.51-.12-.27.07-.68.17-1.38,1.7,2.01,3.71,1.95,5.72,1.85,1.47-.07,2.95-.1,4.41-.29,3.39-.43,6.79-.68,10.11-1.68,3.35-1.01,6.76-2.14,10.4-.94,1.88.62,3.51,1.45,4.74,3,.28.35.54.73.81,1.09.12-.06.23-.13.35-.19.32-1.87.88-3.57,3.11-4.4,1,1.47,2.04,2.98,3.08,4.5.33-.37.72-.75,1.06-1.18,2.14-2.7,5.08-3.59,8.31-3.19,2.33.29,4.59,1.17,6.89,1.74,4.06,1.01,8.11,1.97,12.37,1.82,2.21-.08,4.15-.56,5.91-1.86.28-.21.65-.29.97-.44.12.09.24.18.35.26-.3.73-.6,1.46-.89,2.19-.95,2.44-2.97,3.4-5.35,3.93-1.16.26-2.23.73-2.62,2.06-.08.28-.34.51-.59.86-.72-.52-1.38-.99-2.1-1.51-.22.69-.3,1.18-.53,1.58-.18.31-.52.62-.85.72-.15.04-.5-.4-.68-.67-.26-.4-.44-.85-.68-1.26-1.05-1.85-3.9-3.93-6.08-3.17.05.29.03.63.18.88,1.52,2.64,1.88,5.48,1.8,8.49-.05,1.74-.45,2.98-2.04,3.92-2.58,1.52-5.19,2.51-8.14,1.35-.65-.26-1.35-.91-1.59-1.55-.63-1.68-1.05-3.44-1.49-5.18-.18-.71-.39-1.2-1.25-1.07-.3.05-.61,0-1.17,0,.2-.72.17-1.53.57-1.89,1.08-.98,2.34-1.78,3.55-2.63.09-.06.37.09.53.19,1.14.72,2.32,1.4,3.41,2.2.75.55,1.15,1.36,1.07,2.4-.81-.12-1.54-.27-2.28-.29-.26,0-.7.29-.75.51-.43,1.99.49,3.55,1.93,4.71,1.09.89,2-.42,3-.73.11-.03.2-.12.3-.19,2.05-1.44,2.66-3.4,1.76-5.68-.47-1.18-.83-2.43-1.46-3.51-.47-.8-1.18-1.63-1.99-2.01-2.4-1.1-4.99-1.04-7.52-.56-5.23.99-7.91,6.42-5.54,11.2,1,2.02,2.2,3.95,3.4,5.86,2.19,3.51,4.76,4.55,8.68,3.18,1.93-.67,3.63-1.96,5.49-2.85,3.04-1.46,6.11-2.85,9.19-4.24,2.68-1.21,5.47-2.22,8.04-3.62,3.7-2.01,7.24-4.31,10.88-6.43,1.22-.71,2.56-1.2,3.81-1.86,2.12-1.11,4.13-2.47,6.34-3.36,2.9-1.16,5.92-2.08,8.95-2.87C291.5.45,293.66.31,295.77,0c.56,0,1.12,0,1.68,0,1.36.21,2.71.54,4.08.62,5.62.33,9.19,3.38,11.3,8.37.36.84.54,1.76.8,2.64.39-.43.49-.87.61-1.3.22-.8.34-1.65.71-2.37,2.32-4.43,6.07-6.75,11.01-7.28,1.53-.17,3.06-.45,4.58-.68ZM160.14,43.14c-.17,1.65-1.06,2.41-1.96,3.31-1.74,1.71-4.05,2.84-5.25,5.11-.33.63-.78.33-1.12-.11-.84-1.1-1.16-2.61-3.13-2.68-.93-.03-1.93-1.07-2.71-1.85-.65-.65-1.15-1.52-1.48-2.38-.36-.94.36-1.6,1.37-1.45.55.08,1.14.28,1.64.15.68-.16,1.65-.43,1.88-.93.47-1.05.7-2.28.73-3.44.02-.96-.39-1.89-1.41-2.43-.8-.42-1.52-1.02-2.27-1.55-.95-.66-2.28-.7-3.25-.08-.8.51-1.6,1.03-2.41,1.53-2.79,1.73-4.3,4.14-4.59,7.48-.29,3.3.67,6.21,2.25,8.97.98,1.7,2.33,3.19,4.25,3.85,3.38,1.16,6.9.99,10.32.4,6.48-1.13,12.2-4.1,17.65-7.7,3.83-2.52,7.76-4.94,11.79-7.12,4.74-2.56,9.64-4.83,14.5-7.17,2.09-1.01,4.19-2.03,6.39-2.77,3.57-1.19,7.23-2.01,11.01-.88,2.22.66,4.42,1.34,5.73,3.49.88,1.44,1.78,2.86,2.65,4.27.31-.15.4-.17.44-.22.11-.16.19-.34.28-.52,1.02-1.84,1.95-3.75,3.73-5.03,2.98-2.14,6.18-2.83,9.91-2.24,3.72.59,7.18,1.73,10.5,3.37,2.34,1.15,4.53,2.6,6.82,3.86,2.78,1.54,5.6,3,8.38,4.53,2.15,1.18,4.24,2.46,6.4,3.62,2.4,1.29,4.86,2.48,7.28,3.74,4.07,2.14,8.05,4.46,12.46,5.89,3.9,1.27,7.83,1.71,11.86.74,2.74-.67,4.77-2.29,6.13-4.71,1.51-2.69,1.88-5.63,1.54-8.65-.22-1.92-.45-3.91-1.87-5.37-1.18-1.21-2.53-2.3-3.92-3.25-.67-.46-1.65-.73-2.46-.66-2.74.22-4.95,3.41-4.82,6.17.11,2.31,1.96,2.96,3.86,2.79.2-.02.39-.11.58-.1.74.03,1.03.54.56,1.1-.72.87-1.38,1.98-2.33,2.45-2.06,1.02-3.22,2.76-4.37,4.56-.52.82-.94.83-1.49.06-.62-.88-1.2-1.79-1.91-2.58-.99-1.11-1.95-2.45-3.57-2.55-1.13-.07-1.84-.45-2.16-1.47-.18-.57-.2-1.18-.29-1.78.55.02,1.13-.09,1.64.07,2.32.75,3.98.2,4.63-1.74.22-.65.22-1.42.16-2.11-.17-2.04-.72-4.09-2.66-5.01-2.52-1.19-5.31-1.87-8.11-1.29-3.15.65-4,1.91-4.09,5.13-.04,1.42-.03,2.84,0,4.26.01.92-.44,1.06-1.12.66-.91-.54-1.8-1.13-2.66-1.76-1.71-1.27-2.36-3.29-1.66-5.29.29-.84.77-1.61,1.22-2.51-.38-.02-.65-.05-.91-.05-2.5-.02-5.01.16-7.48-.1-1.91-.2-3.79-.89-5.28-2.28-.56-.53-.48-.87.18-1.12.92-.35,1.85-.7,2.8-.99,2.99-.92,6.02-1.54,9.15-.74.55.14,1.11.27,1.84.45-.72-2.5-2.6-4.54-1.53-7.19.76-1.88,4-3.97,5.91-3.72,0,.47.03.94,0,1.41-.12,1.61-.39,3.22-.38,4.83.02,2.32,1.64,4.17,3.95,4.35,1.92.15,3.88-.02,5.8-.2.74-.07,1.51-.47,2.15-.88,2.24-1.44,2.91-5.63,2.16-7.65-.37-1-1.17-1.76-2.35-1.72-.78.03-1.57.21-2.31.47-.99.34-1.31,0-1.31-.96-.01-1.26.64-2.08,2.03-2.76,1.2-.59,2.42-1.22,3.47-2.03,1.34-1.02,2.52-2.25,3.84-3.44,1.93,1.63,3.99,3.42,6.12,5.13,1.23.99,1.37,2.4,1.73,3.88-.92-.18-1.74-.47-2.54-.83-1.36-.63-2.35-.39-3.07.78-1.77,2.91.39,7.48,3.75,7.93,5.11.69,8.74-3.33,9.31-7.75.5-3.85-.77-7.47-2.71-10.84-1.6-2.78-4.39-3.51-7.14-4.12-3.24-.73-6.45-.21-9.53,1.09-2.95,1.25-5.98,2.34-8.88,3.71-2.93,1.38-5.76,2.98-8.6,4.55-4.17,2.3-8.32,4.64-12.46,6.99-3.37,1.91-6.75,3.8-10.07,5.8-3.26,1.97-6.79,3.28-10.44,4.23-4.05,1.06-8.01.9-11.45-1.8-1.86-1.46-3.64-3.09-4.27-5.28-1.69,1.75-3.2,3.73-5.11,5.19-3.16,2.43-6.9,2.87-10.78,2.12-2.86-.55-5.63-1.34-8.23-2.72-3.05-1.62-6.17-3.1-9.17-4.79-3.03-1.7-5.94-3.6-8.92-5.38-3.42-2.05-6.85-4.08-10.28-6.12-1.56-.93-3.04-2.05-4.7-2.75-2.96-1.25-6.02-2.26-9.05-3.35-3.67-1.32-7.42-2.22-11.35-1.6-3.14.5-5.67,2.13-7.31,4.83-1.99,3.29-2.53,6.85-1.51,10.63.63,2.35,1.56,4.45,3.66,5.92,2.21,1.55,6.04,2.47,8.68-.11.3-.3.53-.8.55-1.22.07-1.07-.01-2.14-.02-3.22,0-2.38-2.01-3.59-4.13-2.49-.13.07-.3.05-.45.08-.14-1.22.54-2.52,1.85-3.33,1.83-1.13,3.62-2.27,4.83-4.13.68-1.05,1.17-1,1.84.08.97,1.57,2.06,2.99,3.9,3.66.67.24,1.33.54,1.93.91,1.14.72,1.75,2.36,1.43,3.77-.75-.27-1.48-.59-2.24-.8-1.95-.54-3.76.4-3.81,2.05-.04,1.42,0,2.87.28,4.26.17.88.65,1.88,1.31,2.45,2.03,1.73,4.3,2.71,7.16,2.35,4.36-.55,6.93-3.91,6.81-7.38-.03-.78-.27-1.55-.36-2.34-.04-.4.05-.82.08-1.23.42.13.88.18,1.24.4.43.26.77.66,1.16.99,1.99,1.71,2.65,4.16,1.83,6.7-.24.74-.42,1.49-.73,2.59.82-.55,1.33-.91,1.85-1.25,1.42-.91,2.9-1.42,4.64-1.02,2.78.65,5.23,2.02,7.68,3.4.82.46.58.79-.08,1.13-1.12.59-2.19,1.31-3.36,1.78-2.01.8-3.96,2.06-6.26,1.62-1.51-.29-2.97-.87-4.35-1.29.3,1.21.79,2.6.97,4.02.19,1.46-.3,2.85-1.3,3.97-.94,1.06-1.81,2.25-3.65,2.46.2-1,.36-1.81.52-2.61.45-2.26.17-4.46-1.47-6.11-1.61-1.62-3.75-2.59-5.98-3.05-1.72-.36-3.07.85-4.4,1.81-.16.12-.35.2-.52.3-3,1.73-3.97,3.92-3.21,7.31.53,2.4,1.78,3.09,4.11,2.35.43-.14.92-.11,1.43-.16ZM10.47,29.67c-.04.15-.09.29-.13.44-1.09.18-2.18.33-3.27.54-2.41.47-3.9,2.53-3.1,4.37.61,1.4,1.5,2.63,2.9,3.38.4.22.89.56,1.27.49,1.35-.23,2.78-.42,4-.99,3.69-1.72,7.22-3.79,10.96-5.38,2.07-.89,4.43-1.52,6.66-1.53,3.73-.01,6.93,1.57,9.12,4.77.71,1.03,1.39,2.08,2.17,3.24.39-.55.73-.97,1.01-1.44,3.39-5.52,7.83-7.4,14.07-6.35,4.65.78,8.82,2.79,12.94,4.93,3.63,1.89,7.17,3.98,10.89,5.66,5.64,2.56,10.6,6.25,16.03,9.14,3.53,1.87,7.09,3.8,10.85,5.07,3.36,1.14,7,1.76,10.61,1.33,1.74-.21,3.62-.61,5.08-1.5,2.47-1.5,3.72-4.03,4.27-6.86.69-3.59.66-7.04-1.93-10-2.35-2.69-5.37-3.72-8.85-3.32-1.83.21-2.9,1.89-2.82,3.97.08,2.24.88,3.2,2.93,3.46.93.12,1.86.18,2.83.27-.01.22.04.45-.04.52-1.19,1.07-1.55,2.98-3.53,3.29-.59.09-1.17.68-1.61,1.17-.79.88-1.56,1.81-2.17,2.82-.61,1-1.17.85-1.9.23-1.9-1.6-3.85-3.16-5.7-4.81-.63-.57-1.15-1.33-1.53-2.09-.21-.43-.05-1.04-.05-1.58.47.09,1.01.06,1.4.29,1.97,1.13,5.18.22,4.83-2.84-.09-.83-.12-1.67-.25-2.49-.43-2.64-2.64-4.94-5.18-5.1-1.97-.12-3.97.04-5.94.25-1.39.15-2.39,1.12-2.52,2.48-.2,2.12-.13,4.28-.16,6.42,0,.44.05.89.08,1.33-.11.09-.22.18-.34.27-1.64-1.14-3.59-2.02-4.85-3.49-1.73-2.02-.57-4.42.32-6.69-.33,0-.49-.01-.63,0-4.6.44-9.05.1-13.07-2.49-.24-.15-.41-.41-.61-.61.22-.21.4-.51.66-.6,1.39-.47,2.82-.85,4.21-1.33,2.23-.77,4.49-1.07,6.82-.66.86.15,1.7.42,2.6.65-.43-1.66-1.02-3.17-1.16-4.72-.15-1.62.54-3.05,1.89-4.15,1.24-1.01,2.47-1.89,4.21-2.03,0,.55.01.94,0,1.33-.07,1.9-.2,3.81-.22,5.71-.01,1.68,1.11,2.91,2.1,2.94,3.17.1,6.41.5,9.47-.74.6-.24,1.21-.76,1.53-1.32.98-1.71,1.03-3.64,1.02-5.56,0-.29-.19-.59-.36-.85-.85-1.31-2.14-1.41-3.5-1.13-.88.18-1.74.47-2.61.71-.44-2-.23-2.81.78-3.22,2.76-1.11,5.34-2.43,7-5.07.41-.66.85-.59,1.39.07.76.93,1.59,1.89,2.59,2.51,1.27.78,2.75,1.2,4.13,1.82.34.15.82.38.9.66.28,1,.42,2.04.61,3.07-.11.09-.23.17-.34.26-.89-.48-1.79-.95-2.67-1.44-1.05-.58-2.26-.28-2.54.81-.59,2.32-1.53,4.67,1.02,6.62,1.12.86,3.39,1.84,4.71,1.33,1.33-.52,2.87-.71,3.75-2.07.47-.72,1-1.4,1.46-2.13,1.48-2.32,2.65-4.81,2.16-7.61-.48-2.71-1.32-5.32-3.28-7.46-2.21-2.41-4.91-3.65-8.16-3.77-4.78-.17-9.09,1.62-13.33,3.41-3.5,1.48-6.8,3.42-10.13,5.25-3.23,1.78-6.4,3.68-9.59,5.52-4.16,2.39-8.24,4.93-12.5,7.13-3.37,1.75-6.93,3.16-10.46,4.58-2.76,1.11-5.62,1.55-8.66,1.18-4.22-.51-7.12-2.66-9.02-6.34-.31-.6-.65-1.19-1.03-1.9-.27.4-.44.62-.57.86-1.4,2.57-3.12,4.89-5.83,6.21-1.92.94-3.96,1.75-6.14,1.01-4.43-1.52-8.83-3.11-13.21-4.74-1.01-.38-1.94-1.02-2.85-1.63-1.36-.9-2.63-1.9-4.45-1.68-1.52.19-2.95,2.18-2.17,3.48.83,1.39,1.65,2.91,3.34,3.58.51.2.95.58,1.42.88ZM404.3,22.09c-.29.55-.61,1.14-.91,1.73-1.1,2.18-2.7,3.88-4.87,5.03-3.37,1.78-6.89,1.44-10.38.6-5.17-1.24-9.92-3.44-14.45-6.22-3.57-2.18-7.26-4.16-10.88-6.25-3.87-2.23-7.74-4.49-11.6-6.73-1.34-.78-2.6-1.75-4.02-2.31-3.61-1.43-7.28-2.74-10.96-3.99-3.33-1.13-6.81-1.47-10.25-.79-2.58.51-4.85,1.78-6.2,4.25-.99,1.81-1.55,3.75-1.47,5.79.1,2.41.12,4.87.66,7.2.65,2.82,5.57,5.84,8.49,5.61,2.91-.23,4.28-1.72,4.29-4.62,0-.32-.04-.64,0-.96.28-1.96-1.42-2.37-2.54-3.2-.95-.7-1.49.23-2.16.64-.22.13-.63.33-.71.25-.2-.19-.34-.53-.34-.81-.01-1.72,1.4-3.07,3.12-3.19,2.19-.15,4.1-.81,5-3.12.37-.94.93-.99,1.77-.39,1.81,1.28,3.64,2.54,5.45,3.82,1.36.96,2.1,2.22,1.9,3.95-1.32-.26-2.55-.51-3.79-.74-1.64-.3-2.93,1.1-2.47,2.72.51,1.79,1.13,3.55,1.62,5.34.22.81.67,1.24,1.45,1.31,2.14.19,4.3.58,6.41.44,3.96-.27,6.24-2.7,4.84-6.76-.38-1.09-.58-2.24-.87-3.36.1-.1.2-.2.29-.31,1.07.54,2.2.99,3.19,1.65,2.87,1.91,3.46,3.79,2.41,7.03-.27.83-.45,1.68-.67,2.5,5.36-1.35,10.2-.77,15.06,2.1-5,2.71-9.76,4.38-15.28,2.23.25.83.47,1.41.61,2.01.45,1.94,1.25,3.84.22,5.89-.98,1.94-2.68,2.72-4.58,3.27-.76.22-1.17-.29-.96-1.12.24-.92.56-1.82.8-2.73.72-2.73-.95-6.94-4.82-6.84-2.01.05-4.05.2-6,.65-2.01.46-4.25,2.5-3.94,4.48.17,1.09.53,2.14.74,3.23.29,1.49,1.41,2.35,2.9,2.1.5-.08.95-.4,1.45-.52.36-.09.98-.17,1.09,0,.2.3.26.88.09,1.2-.75,1.43-1.67,2.62-3.52,2.79-2.43.23-4.3,1.42-4.88,4.24-.05.25-.17.49-.33.96-2.4-2.06-4.68-4-6.92-5.97-.37-.33-.69-.8-.86-1.26-.17-.49-.28-1.1-.13-1.56.07-.2.84-.23,1.3-.23.55,0,1.11.16,1.66.17,1.55.02,2.36-.79,2.37-2.32,0-.72,0-1.43,0-2.15,0-1.88-1.26-3.33-3.14-3.66-2.58-.46-4.67.86-6.71,2.02-2.67,1.52-3.93,3.99-3.85,7.1.09,3.66,1.46,6.85,3.47,9.84,1.16,1.72,2.97,2.5,4.76,2.91,1.94.45,4.06.43,6.07.24,6.68-.61,12.53-3.52,18.21-6.84,4.74-2.77,9.4-5.66,14.22-8.29,4.45-2.42,9.03-4.61,13.59-6.81,4.49-2.16,9.11-3.99,14.18-4.3,4.03-.25,7.35,1.06,9.7,4.42.78,1.12,1.45,2.32,2.26,3.63.29-.43.46-.78.71-1.06,1.46-1.66,2.74-3.55,4.46-4.89,2.45-1.92,5.44-2.76,8.51-1.67,4.07,1.45,8.05,3.17,12.05,4.79,1.98.81,3.92,1.73,5.92,2.48,1.2.45,3.56-.24,3.96-.97.48-.87,0-2.74-.98-3.85-1.34-1.52-3.08-2.45-4.89-3.28-.26-.12-.49-.31-.74-.46.21-.25.38-.56.64-.73.87-.55,1.85-.95,2.65-1.59,1.12-.91,2.21-1.91,3.11-3.03.3-.38.24-1.62-.08-1.83-1.46-.97-3.1-1.21-4.72-.27-1.18.69-2.26,1.62-3.52,2.11-3.93,1.52-7.91,2.89-11.89,4.29-1.04.37-2.13.98-3.17.93-2.74-.13-5.39-.86-7.44-2.82-1.67-1.59-3.14-3.38-4.78-5.17ZM119.86,30.16c3.16.65,6.01,1.63,8.23,3.94,2.19,2.28,3.33,5.11,4.24,8.2.65-7.2,4.42-11.35,11.69-12.18-3-.82-5.88-1.57-8.17-3.66-2.37-2.16-2.98-5.08-3.54-8.09-2.07,6.16-5.47,10.82-12.45,11.79ZM313.8,42.47c1.39-7.16,5.49-11.33,12.79-12.37-6.86-1.19-11.82-4.22-12.87-11.64-.73,2.96-1.65,5.73-3.78,7.89-2.15,2.17-4.88,3.23-7.9,3.84,7.28.89,11.12,5,11.77,12.29Z" style="fill: #a86700; stroke-width: 0px;"/>
</svg>